<svg width="184" height="180" viewBox="0 0 184 180" fill="none" xmlns="http://www.w3.org/2000/svg">
<path d="M62.7606 0.104813C60.6442 0.245911 55.605 1.01186 53.0854 1.57625C34.5009 5.72853 18.4361 17.6008 8.84146 34.3107C4.83028 41.3051 1.8874 49.8919 0.698158 58.015C0.093457 62.1874 -0.04764 65.5738 0.0128301 74.9265L0.0733002 84.259L1.08114 82.6868C2.9154 79.7842 6.05984 76.8615 9.3857 74.987C18.5368 69.8268 31.296 67.7709 53.0854 67.9321C60.2814 67.9926 62.9219 67.791 68.5053 66.763C78.9062 64.8481 88.2387 60.8773 96.765 54.7496C99.8893 52.5122 102.207 50.4966 105.291 47.2916C114.926 37.3544 120.872 24.8976 122.606 11.0499C122.848 9.17532 123.533 0.97155 123.533 0.0644989C123.533 -0.0362854 64.4538 -0.0161285 62.7606 0.104813Z" fill="white"/>
<path d="M135.627 6.29297C135.627 6.35344 135.909 6.85736 136.232 7.42175C139.638 13.1866 139.92 21.471 137.058 31.2067C134.72 39.1686 131.213 46.6265 123.553 59.8292C119.905 66.1181 117.97 70.2502 116.196 75.5514C113.636 83.2311 112.588 89.7619 112.588 97.9253C112.608 106.129 113.737 112.68 116.418 120.098C120.832 132.293 128.754 142.552 139.86 150.474C143.549 153.094 146.935 155.231 147.096 155.049C147.197 154.949 153.526 144.084 161.145 130.882C175.376 106.23 177.896 101.594 179.669 96.6151C182.471 88.8548 183.56 82.9691 183.741 74.7451C183.842 69.6656 183.62 66.1181 182.895 61.9053C180.194 46.3443 172.353 32.2951 160.803 22.2772C155.864 18.0242 154.07 16.8148 143.67 10.8484C139.961 8.71178 136.635 6.79689 136.292 6.57516C135.929 6.35344 135.627 6.23251 135.627 6.29297Z" fill="white"/>
<path d="M31.0138 88.2501C24.4427 88.8145 17.8717 90.3262 12.1875 92.5838C9.80898 93.5311 0.778778 97.8245 0.778778 98.0261C0.778778 98.1873 28.4539 146.08 29.885 148.378C34.2591 155.453 41.193 162.729 48.2881 167.728C58.6285 175.005 71.3272 179.338 84.1267 179.923C91.9072 180.265 98.7403 179.479 106.178 177.343C112.648 175.468 116.539 173.634 127.524 167.305L135.446 162.729L133.37 162.588C130.749 162.407 128.733 161.963 126.476 161.076C122.404 159.464 118.312 156.601 114.16 152.449C108.012 146.322 102.691 138.783 95.1121 125.439C90.5567 117.417 87.1301 112.902 81.1838 107.097C70.5411 96.7159 57.3788 90.3464 42.8861 88.5524C39.8425 88.1896 33.6342 88.0082 31.0138 88.2501Z" fill="white"/>
</svg>
